<svg id="visual" viewBox="0 0 900 600" width="900" height="600" xmlns="http://www.w3.org/2000/svg" xmlns:xlink="http://www.w3.org/1999/xlink" version="1.1"><rect x="0" y="0" width="900" height="600" fill="#4FACF7"></rect><defs><linearGradient id="grad1_0" x1="33.3%" y1="100%" x2="100%" y2="0%"><stop offset="20%" stop-color="#4facf7" stop-opacity="1"></stop><stop offset="80%" stop-color="#4facf7" stop-opacity="1"></stop></linearGradient></defs><defs><linearGradient id="grad2_0" x1="0%" y1="100%" x2="66.7%" y2="0%"><stop offset="20%" stop-color="#4facf7" stop-opacity="1"></stop><stop offset="80%" stop-color="#4facf7" stop-opacity="1"></stop></linearGradient></defs><g transform="translate(900, 600)"><path d="M-351.5 0C-331.4 -32.7 -311.2 -65.5 -295.8 -96.1C-280.3 -126.7 -269.6 -155.3 -255.6 -185.7C-241.7 -216.2 -224.5 -248.5 -199.8 -275.1C-175.2 -301.7 -143.2 -322.5 -108.6 -334.3C-74.1 -346.1 -37 -348.8 0 -351.5L0 0Z" fill="#47cdb0"></path></g><g transform="translate(0, 0)"><path d="M351.5 0C349.5 37.4 347.4 74.9 334.3 108.6C321.3 142.4 297.2 172.5 271.8 197.5C246.5 222.5 219.9 242.3 193.4 266.2C166.9 290 140.4 318 108.2 332.9C75.9 347.8 38 349.7 0 351.5L0 0Z" fill="#47cdb0"></path></g></svg>