<svg id="visual" viewBox="0 0 900 600" width="900" height="600" xmlns="http://www.w3.org/2000/svg" xmlns:xlink="http://www.w3.org/1999/xlink" version="1.1"><rect x="0" y="0" width="900" height="600" fill="#5eb0f3"></rect><path d="M0 503L30 510.2C60 517.3 120 531.7 180 530C240 528.3 300 510.7 360 507.2C420 503.7 480 514.3 540 513.8C600 513.3 660 501.7 720 501.5C780 501.3 840 512.7 870 518.3L900 524L900 601L870 601C840 601 780 601 720 601C660 601 600 601 540 601C480 601 420 601 360 601C300 601 240 601 180 601C120 601 60 601 30 601L0 601Z" fill="#73e5cc"></path></svg>