<svg id="visual" viewBox="0 0 900 600" width="900" height="600" xmlns="http://www.w3.org/2000/svg" xmlns:xlink="http://www.w3.org/1999/xlink" version="1.1"><path d="M0 253L13.7 257C27.3 261 54.7 269 82 250C109.3 231 136.7 185 163.8 164C191 143 218 147 245.2 150C272.3 153 299.7 155 327 150C354.3 145 381.7 133 409 154C436.3 175 463.7 229 491 241C518.3 253 545.7 223 573 229C600.3 235 627.7 277 654.8 275C682 273 709 227 736.2 207C763.3 187 790.7 193 818 196C845.3 199 872.7 199 886.3 199L900 199L900 0L886.3 0C872.7 0 845.3 0 818 0C790.7 0 763.3 0 736.2 0C709 0 682 0 654.8 0C627.7 0 600.3 0 573 0C545.7 0 518.3 0 491 0C463.7 0 436.3 0 409 0C381.7 0 354.3 0 327 0C299.7 0 272.3 0 245.2 0C218 0 191 0 163.8 0C136.7 0 109.3 0 82 0C54.7 0 27.3 0 13.7 0L0 0Z" fill="#8bc6f9"></path><path d="M0 445L13.7 444C27.3 443 54.7 441 82 408C109.3 375 136.7 311 163.8 291C191 271 218 295 245.2 301C272.3 307 299.7 295 327 287C354.3 279 381.7 275 409 287C436.3 299 463.7 327 491 329C518.3 331 545.7 307 573 315C600.3 323 627.7 363 654.8 360C682 357 709 311 736.2 313C763.3 315 790.7 365 818 385C845.3 405 872.7 395 886.3 390L900 385L900 197L886.3 197C872.7 197 845.3 197 818 194C790.7 191 763.3 185 736.2 205C709 225 682 271 654.8 273C627.7 275 600.3 233 573 227C545.7 221 518.3 251 491 239C463.7 227 436.3 173 409 152C381.7 131 354.3 143 327 148C299.7 153 272.3 151 245.2 148C218 145 191 141 163.8 162C136.7 183 109.3 229 82 248C54.7 267 27.3 259 13.7 255L0 251Z" fill="#4facf7"></path><path d="M0 601L13.7 601C27.3 601 54.7 601 82 601C109.3 601 136.7 601 163.8 601C191 601 218 601 245.2 601C272.3 601 299.7 601 327 601C354.3 601 381.7 601 409 601C436.3 601 463.7 601 491 601C518.3 601 545.7 601 573 601C600.3 601 627.7 601 654.8 601C682 601 709 601 736.2 601C763.3 601 790.7 601 818 601C845.3 601 872.7 601 886.3 601L900 601L900 383L886.3 388C872.7 393 845.3 403 818 383C790.7 363 763.3 313 736.2 311C709 309 682 355 654.8 358C627.7 361 600.3 321 573 313C545.7 305 518.3 329 491 327C463.7 325 436.3 297 409 285C381.7 273 354.3 277 327 285C299.7 293 272.3 305 245.2 299C218 293 191 269 163.8 289C136.7 309 109.3 373 82 406C54.7 439 27.3 441 13.7 442L0 443Z" fill="#377ebb"></path></svg>