<svg id="visual" viewBox="0 0 900 600" width="900" height="600" xmlns="http://www.w3.org/2000/svg" xmlns:xlink="http://www.w3.org/1999/xlink" version="1.1"><path d="M0 85L13.7 85C27.3 85 54.7 85 82 97C109.3 109 136.7 133 163.8 141C191 149 218 141 245.2 134C272.3 127 299.7 121 327 123C354.3 125 381.7 135 409 129C436.3 123 463.7 101 491 101C518.3 101 545.7 123 573 124C600.3 125 627.7 105 654.8 90C682 75 709 65 736.2 66C763.3 67 790.7 79 818 96C845.3 113 872.7 135 886.3 146L900 157L900 0L886.3 0C872.7 0 845.3 0 818 0C790.7 0 763.3 0 736.2 0C709 0 682 0 654.8 0C627.7 0 600.3 0 573 0C545.7 0 518.3 0 491 0C463.7 0 436.3 0 409 0C381.7 0 354.3 0 327 0C299.7 0 272.3 0 245.2 0C218 0 191 0 163.8 0C136.7 0 109.3 0 82 0C54.7 0 27.3 0 13.7 0L0 0Z" fill="#377ebb"></path><path d="M0 343L13.7 323C27.3 303 54.7 263 82 253C109.3 243 136.7 263 163.8 268C191 273 218 263 245.2 267C272.3 271 299.7 289 327 297C354.3 305 381.7 303 409 284C436.3 265 463.7 229 491 223C518.3 217 545.7 241 573 245C600.3 249 627.7 233 654.8 226C682 219 709 221 736.2 221C763.3 221 790.7 219 818 220C845.3 221 872.7 225 886.3 227L900 229L900 155L886.3 144C872.7 133 845.3 111 818 94C790.7 77 763.3 65 736.2 64C709 63 682 73 654.8 88C627.7 103 600.3 123 573 122C545.7 121 518.3 99 491 99C463.7 99 436.3 121 409 127C381.7 133 354.3 123 327 121C299.7 119 272.3 125 245.2 132C218 139 191 147 163.8 139C136.7 131 109.3 107 82 95C54.7 83 27.3 83 13.7 83L0 83Z" fill="#4395d9"></path><path d="M0 415L13.7 389C27.3 363 54.7 311 82 306C109.3 301 136.7 343 163.8 352C191 361 218 337 245.2 336C272.3 335 299.7 357 327 367C354.3 377 381.7 375 409 351C436.3 327 463.7 281 491 278C518.3 275 545.7 315 573 322C600.3 329 627.7 303 654.8 297C682 291 709 305 736.2 305C763.3 305 790.7 291 818 282C845.3 273 872.7 269 886.3 267L900 265L900 227L886.3 225C872.7 223 845.3 219 818 218C790.7 217 763.3 219 736.2 219C709 219 682 217 654.8 224C627.7 231 600.3 247 573 243C545.7 239 518.3 215 491 221C463.7 227 436.3 263 409 282C381.7 301 354.3 303 327 295C299.7 287 272.3 269 245.2 265C218 261 191 271 163.8 266C136.7 261 109.3 241 82 251C54.7 261 27.3 301 13.7 321L0 341Z" fill="#4facf7"></path><path d="M0 475L13.7 455C27.3 435 54.7 395 82 387C109.3 379 136.7 403 163.8 416C191 429 218 431 245.2 441C272.3 451 299.7 469 327 470C354.3 471 381.7 455 409 432C436.3 409 463.7 379 491 381C518.3 383 545.7 417 573 412C600.3 407 627.7 363 654.8 356C682 349 709 379 736.2 390C763.3 401 790.7 393 818 387C845.3 381 872.7 377 886.3 375L900 373L900 263L886.3 265C872.7 267 845.3 271 818 280C790.7 289 763.3 303 736.2 303C709 303 682 289 654.8 295C627.7 301 600.3 327 573 320C545.7 313 518.3 273 491 276C463.7 279 436.3 325 409 349C381.7 373 354.3 375 327 365C299.7 355 272.3 333 245.2 334C218 335 191 359 163.8 350C136.7 341 109.3 299 82 304C54.7 309 27.3 361 13.7 387L0 413Z" fill="#6fb9f8"></path><path d="M0 601L13.7 601C27.3 601 54.7 601 82 601C109.3 601 136.7 601 163.8 601C191 601 218 601 245.2 601C272.3 601 299.7 601 327 601C354.3 601 381.7 601 409 601C436.3 601 463.7 601 491 601C518.3 601 545.7 601 573 601C600.3 601 627.7 601 654.8 601C682 601 709 601 736.2 601C763.3 601 790.7 601 818 601C845.3 601 872.7 601 886.3 601L900 601L900 371L886.3 373C872.7 375 845.3 379 818 385C790.7 391 763.3 399 736.2 388C709 377 682 347 654.8 354C627.7 361 600.3 405 573 410C545.7 415 518.3 381 491 379C463.7 377 436.3 407 409 430C381.7 453 354.3 469 327 468C299.7 467 272.3 449 245.2 439C218 429 191 427 163.8 414C136.7 401 109.3 377 82 385C54.7 393 27.3 433 13.7 453L0 473Z" fill="#8bc6f9"></path></svg>