<svg id="visual" viewBox="0 0 900 600" width="900" height="600" xmlns="http://www.w3.org/2000/svg" xmlns:xlink="http://www.w3.org/1999/xlink" version="1.1"><path d="M728 600L726.5 590C725 580 722 560 720.5 540C719 520 719 500 731 480C743 460 767 440 774.5 420C782 400 773 380 761 360C749 340 734 320 726.5 300C719 280 719 260 726.5 240C734 220 749 200 762.5 180C776 160 788 140 783.5 120C779 100 758 80 758 60C758 40 779 20 789.5 10L800 0L900 0L900 10C900 20 900 40 900 60C900 80 900 100 900 120C900 140 900 160 900 180C900 200 900 220 900 240C900 260 900 280 900 300C900 320 900 340 900 360C900 380 900 400 900 420C900 440 900 460 900 480C900 500 900 520 900 540C900 560 900 580 900 590L900 600Z" fill="#a7d5ff"></path><path d="M431 600L437 590C443 580 455 560 453.5 540C452 520 437 500 449 480C461 460 500 440 506 420C512 400 485 380 474.5 360C464 340 470 320 465.5 300C461 280 446 260 441.5 240C437 220 443 200 464 180C485 160 521 140 525.5 120C530 100 503 80 510.5 60C518 40 560 20 581 10L602 0L801 0L790.5 10C780 20 759 40 759 60C759 80 780 100 784.5 120C789 140 777 160 763.5 180C750 200 735 220 727.5 240C720 260 720 280 727.5 300C735 320 750 340 762 360C774 380 783 400 775.5 420C768 440 744 460 732 480C720 500 720 520 721.5 540C723 560 726 580 727.5 590L729 600Z" fill="#88c8ff"></path><path d="M215 600L209 590C203 580 191 560 192.5 540C194 520 209 500 209 480C209 460 194 440 177.5 420C161 400 143 380 140 360C137 340 149 320 150.5 300C152 280 143 260 149 240C155 220 176 200 183.5 180C191 160 185 140 185 120C185 100 191 80 201.5 60C212 40 227 20 234.5 10L242 0L603 0L582 10C561 20 519 40 511.5 60C504 80 531 100 526.5 120C522 140 486 160 465 180C444 200 438 220 442.5 240C447 260 462 280 466.5 300C471 320 465 340 475.5 360C486 380 513 400 507 420C501 440 462 460 450 480C438 500 453 520 454.5 540C456 560 444 580 438 590L432 600Z" fill="#6cb8f8"></path><path d="M0 600L0 590C0 580 0 560 0 540C0 520 0 500 0 480C0 460 0 440 0 420C0 400 0 380 0 360C0 340 0 320 0 300C0 280 0 260 0 240C0 220 0 200 0 180C0 160 0 140 0 120C0 100 0 80 0 60C0 40 0 20 0 10L0 0L243 0L235.5 10C228 20 213 40 202.5 60C192 80 186 100 186 120C186 140 192 160 184.5 180C177 200 156 220 150 240C144 260 153 280 151.5 300C150 320 138 340 141 360C144 380 162 400 178.5 420C195 440 210 460 210 480C210 500 195 520 193.5 540C192 560 204 580 210 590L216 600Z" fill="#55a3e9"></path></svg>